<?xml version="1.0"?>
<svg xmlns="http://www.w3.org/2000/svg" xmlns:xlink="http://www.w3.org/1999/xlink" xmlns:svgjs="http://svgjs.com/svgjs" version="1.1" width="512" height="512" x="0" y="0" viewBox="0 0 504.125 504.125" style="enable-background:new 0 0 512 512" xml:space="preserve" class=""><g>
<path xmlns="http://www.w3.org/2000/svg" style="" d="M339.772,0c0,0,44.536,108.954-146.337,182.138C89.719,221.893,10.059,323.789,105.173,481.193  c7.877-70.357,41.653-225.485,186.888-260.884c0,0-135.176,50.546-147.117,279.347c69.459,9.752,232.361,16.305,280.726-125.062  C489.536,187.817,339.772,0,339.772,0z" fill="#059f6c" data-original="#3a7f0d" class=""/>
<path xmlns="http://www.w3.org/2000/svg" style="" d="M145.007,498.704c147.456-58.849,254.748-196.71,269.556-361.283C384.418,56.107,339.772,0,339.772,0  s44.536,108.954-146.337,182.138C89.719,221.893,10.059,323.789,105.173,481.193c7.877-70.357,41.653-225.485,186.888-260.884  C292.053,220.31,157.279,270.73,145.007,498.704z" fill="#05c887" data-original="#49a010" class=""/>
<circle xmlns="http://www.w3.org/2000/svg" style="" cx="90.459" cy="171.985" r="13.785" fill="#059f6c" data-original="#3a7f0d" class=""/>
<g xmlns="http://www.w3.org/2000/svg">
	<circle style="" cx="133.782" cy="158.2" r="9.846" fill="#05c887" data-original="#49a010" class=""/>
	<circle style="" cx="124.921" cy="64.662" r="24.615" fill="#05c887" data-original="#49a010" class=""/>
	<circle style="" cx="200.736" cy="120.785" r="7.877" fill="#05c887" data-original="#49a010" class=""/>
	<circle style="" cx="266.713" cy="76.477" r="22.646" fill="#05c887" data-original="#49a010" class=""/>
</g>
<g xmlns="http://www.w3.org/2000/svg">
</g>
<g xmlns="http://www.w3.org/2000/svg">
</g>
<g xmlns="http://www.w3.org/2000/svg">
</g>
<g xmlns="http://www.w3.org/2000/svg">
</g>
<g xmlns="http://www.w3.org/2000/svg">
</g>
<g xmlns="http://www.w3.org/2000/svg">
</g>
<g xmlns="http://www.w3.org/2000/svg">
</g>
<g xmlns="http://www.w3.org/2000/svg">
</g>
<g xmlns="http://www.w3.org/2000/svg">
</g>
<g xmlns="http://www.w3.org/2000/svg">
</g>
<g xmlns="http://www.w3.org/2000/svg">
</g>
<g xmlns="http://www.w3.org/2000/svg">
</g>
<g xmlns="http://www.w3.org/2000/svg">
</g>
<g xmlns="http://www.w3.org/2000/svg">
</g>
<g xmlns="http://www.w3.org/2000/svg">
</g>
</g></svg>
