<svg width="30" height="30" viewBox="0 0 30 30" fill="none" xmlns="http://www.w3.org/2000/svg">
<g clip-path="url(#clip0)">
<path d="M29.27 17.0862C28.9631 17.0095 28.6562 17.0862 28.3877 17.278C27.3903 18.122 26.2394 18.8125 24.9735 19.2729C23.7843 19.7332 22.48 19.9634 21.0989 19.9634C17.9916 19.9634 15.1529 18.6974 13.1197 16.6643C11.0865 14.6311 9.82059 11.7923 9.82059 8.68502C9.82059 7.38072 10.0508 6.11478 10.4344 4.96393C10.8564 3.73636 11.4701 2.62387 12.2757 1.66482C12.621 1.24284 12.5443 0.629056 12.1223 0.283801C11.8538 0.0919923 11.5469 0.0152688 11.24 0.0919922C7.97923 0.974312 5.14047 2.93076 3.1073 5.53936C1.15085 8.10959 0 11.2936 0 14.7462C0 18.9276 1.68791 22.7254 4.44996 25.4875C7.212 28.2495 10.9714 29.9374 15.1912 29.9374C18.7205 29.9374 21.9813 28.7098 24.5898 26.6767C27.2368 24.6051 29.1549 21.6513 29.9605 18.2754C30.1139 17.7384 29.807 17.2013 29.27 17.0862Z" fill="#7f7f7f"/>
</g>
<defs>
<clipPath id="clip0">
<rect width="30" height="30" fill="white"/>
</clipPath>
</defs>
</svg>
