<svg width="100" height="85" viewBox="0 0 100 85" xmlns="http://www.w3.org/2000/svg">
<path fill-rule="evenodd" clip-rule="evenodd" d="M75 60H64.9852C62.2652 60 60 62.2386 60 65C60 67.7807 62.2319 70 64.9852 70H75V80.0148C75 82.7348 77.2386 85 80 85C82.7807 85 85 82.7681 85 80.0148V70H95.0148C97.7348 70 100 67.7614 100 65C100 62.2193 97.7681 60 95.0148 60H85V49.9852C85 47.2652 82.7614 45 80 45C77.2193 45 75 47.2319 75 49.9852V60ZM0 5C0 2.23858 2.27653 0 4.95902 0H95.041C97.7798 0 100 2.21932 100 5C100 7.76142 97.7235 10 95.041 10H4.95902C2.22023 10 0 7.78068 0 5ZM0 35C0 32.2386 2.27653 30 4.95902 30H95.041C97.7798 30 100 32.2193 100 35C100 37.7614 97.7235 40 95.041 40H4.95902C2.22023 40 0 37.7807 0 35ZM0 65C0 62.2386 2.27832 60 4.97699 60H45.023C47.7717 60 50 62.2193 50 65C50 67.7614 47.7217 70 45.023 70H4.97699C2.22827 70 0 67.7807 0 65Z" />
</svg>
