<svg width="100" height="100" viewBox="0 0 100 100" xmlns="http://www.w3.org/2000/svg">
<path d="M50 0C22.3877 0 0 22.3853 0 50C0 77.6147 22.3877 100 50 100C77.6123 100 100 77.6147 100 50C100 22.3853 77.6123 0 50 0ZM83.5645 66.8555L81.377 70.6445C81.1183 71.0912 80.542 71.2452 80.0977 70.9888L47.6856 52.273C47.2412 52.0142 46.875 51.3819 46.875 50.8667V13.4375C46.875 12.9198 47.295 12.5 47.8125 12.5H52.1875C52.7052 12.5 53.125 12.92 53.125 13.4375V47.2608C53.125 47.7759 53.4912 48.4083 53.9356 48.6645L83.2228 65.5737C83.667 65.8325 83.8233 66.4088 83.5645 66.8555Z" />
</svg>
